<?xml version="1.0" standalone="no"?><!DOCTYPE svg PUBLIC "-//W3C//DTD SVG 1.1//EN" "http://www.w3.org/Graphics/SVG/1.1/DTD/svg11.dtd"><svg t="1723638626944" class="icon" viewBox="0 0 1190 1024" version="1.1" xmlns="http://www.w3.org/2000/svg" p-id="23581" xmlns:xlink="http://www.w3.org/1999/xlink" width="232.421875" height="200"><path d="M1175 155H994.8l-0.4-0.6c10-17.6 15.6-37.8 15.6-59 0-32.8-26.6-59.6-59.6-59.6H743.6c-128.6 0-233.2 102.8-237.2 230.4-66.4-17.2-117.4-64.6-151.6-142.4-7.4-17-24.2-28.2-42.8-28.4-19.6 0.4-35 10-43 26.8-20.8 43.8-31.2 90.6-31.2 138.8 0 140.2 105.2 267 247.2 301.2 8.2 2 16.4-3.6 18-12l5.6-29.2c1.4-7.8-3.6-15.2-11.4-17.2-114.8-28.2-199.8-130.2-199.8-242.8 0-30.4 5-59.8 15-88.2 54.6 105.2 141.4 160.4 252.8 160.4l0.2-59.6c0-98.6 80-178.6 178.6-178.6H950.8c0 24.8-15 45.8-36.6 54.8l38 46v174.6c0 12.8-8 24-20.2 28.2l-47.4 16.2c-17.4 6-30-5.2-34.4-11.6l-46.8-70.2-89.2-29.8V490c0 49.6-23.6 93.4-59.6 122v316.6h-119v-300l-194.2-43.2-59.8 166.4 44.8 176.8H219.2l-39.2-163.4c-2.4-10-2.2-20.2 0.6-30l51.4-173.8c-32.4-22.6-53.6-60-53.6-102.6 0-29.4 10.6-56.2 27.6-77.6-9.2-20.2-16.8-41-21.2-62.8-15 13-28.2 28-38.6 45-81 1.4-146.2 67.2-146.2 148.6v104.2c0 8.2 6.6 14.8 14.8 14.8h29.8c8.2 0 14.8-6.6 14.8-14.8V512c0-40 26.4-73.4 62.8-84.8-1.8 10.4-3.2 20.8-3.2 31.6 0 45 16.6 88 45.6 121.4l-40.8 138.2c-5.8 20-6.2 41-1.4 60.8l39.2 163.4c6.4 26.8 30.4 45.6 57.8 45.6h107c39 0 67.2-36.8 57.6-74.2l-40.4-159.2 35.8-100 96.4 21.4v252.2c0 32.8 26.6 59.6 59.6 59.6h119c32.8 0 59.6-26.6 59.6-59.6V638c38.2-40 59.6-92.6 59.6-148v-94l27 40.6c35.6 53.4 93 38.4 103.2 35l47.4-16.2c36.2-12.4 60.4-46.2 60.4-84.6v-120.6l172-68.2c12-8 6.2-27-8.6-27z m-312.4 59.4c0-16.4-13.4-29.8-29.8-29.8s-29.8 13.4-29.8 29.8 13.4 29.8 29.8 29.8 29.8-13.4 29.8-29.8z" p-id="23582" fill="#42b883"></path></svg>